# xmcd
#
# Track frame offsets:
#	150
#	13512
#	26605
#	35097
#	45062
#	54885
#	61920
#	71362
#	81927
#	93425
#	102700
#	112542
#	124737
#	135865
#	147405
#	160917
#	173112
#	185460
#	198852
#	211852
#	223445
#	236615
#	247765
#	259445
#
# Disc length: 3609 seconds
# Revision: 1
# Processed by: cddbd v1.5.2PL0 Copyright (c) Steve Scherf et al.
# Submitted via: dBpowerAMP V12.0
#
DISCID=450e1718
DTITLE=Marty Robbins - Just A Little Sentimental~Turn The Lights Down Low
DYEAR=2002
DGENRE=Country
TTITLE0=A Little Sentimental
TTITLE1=Hurt
TTITLE2=To Each His Own
TTITLE3=I Can't Help It (If I'm Still In Love With You)
TTITLE4=Answer Me My Love
TTITLE5=Clara
TTITLE6=Half As Much
TTITLE7=Unchained Melody
TTITLE8=Are You Sincere?
TTITLE9=Guess I'll Be Going
TTITLE10=To Think You've Chosen Me
TTITLE11=Too Young
TTITLE12=Turn The Lights Down Low
TTITLE13=Forever Yours
TTITLE14=You're Not The Only One
TTITLE15=I Don't Care (If You Don't Care For Me)
TTITLE16=But Only In My Dreams
TTITLE17=If You See My Heart Today
TTITLE18=When Your Love Was Mine
TTITLE19=Up In The Air
TTITLE20=No Tears, No Regrets
TTITLE21=Refer Him To Me
TTITLE22=Can I Help It
TTITLE23=I'll Be All Right
EXTD=
EXTT0=
EXTT1=
EXTT2=
EXTT3=
EXTT4=
EXTT5=
EXTT6=
EXTT7=
EXTT8=
EXTT9=
EXTT10=
EXTT11=
EXTT12=
EXTT13=
EXTT14=
EXTT15=
EXTT16=
EXTT17=
EXTT18=
EXTT19=
EXTT20=
EXTT21=
EXTT22=
EXTT23=
PLAYORDER=
